<mxfile host="app.diagrams.net" modified="2022-02-09T15:33:17.371Z" agent="5.0 (Windows NT 10.0; Win64; x64) AppleWebKit/537.36 (KHTML, like Gecko) Chrome/98.0.4758.80 Safari/537.36 Edg/98.0.1108.43" etag="Gtvr76o6v2cUwYD5pxnm" version="16.5.2" type="github" pages="4">
  <diagram id="kgpKYQtTHZ0yAKxKKP6v" name="Page-1">
    <mxGraphModel dx="813" dy="435" grid="1" gridSize="10" guides="1" tooltips="1" connect="1" arrows="1" fold="1" page="1" pageScale="1" pageWidth="850" pageHeight="1100" math="0" shadow="0">
      <root>
        <mxCell id="0" />
        <mxCell id="1" parent="0" />
        <mxCell id="3nuBFxr9cyL0pnOWT2aG-1" value=":Clock" style="shape=umlLifeline;perimeter=lifelinePerimeter;container=1;collapsible=0;recursiveResize=0;rounded=0;shadow=0;strokeWidth=1;" parent="1" vertex="1">
          <mxGeometry x="120" y="80" width="100" height="300" as="geometry" />
        </mxCell>
        <mxCell id="3nuBFxr9cyL0pnOWT2aG-2" value="" style="points=[];perimeter=orthogonalPerimeter;rounded=0;shadow=0;strokeWidth=1;" parent="3nuBFxr9cyL0pnOWT2aG-1" vertex="1">
          <mxGeometry x="45" y="70" width="10" height="190" as="geometry" />
        </mxCell>
        <mxCell id="3nuBFxr9cyL0pnOWT2aG-5" value=":Checkout" style="shape=umlLifeline;perimeter=lifelinePerimeter;container=1;collapsible=0;recursiveResize=0;rounded=0;shadow=0;strokeWidth=1;" parent="1" vertex="1">
          <mxGeometry x="300" y="80" width="100" height="300" as="geometry" />
        </mxCell>
        <mxCell id="3nuBFxr9cyL0pnOWT2aG-6" value="" style="points=[];perimeter=orthogonalPerimeter;rounded=0;shadow=0;strokeWidth=1;" parent="3nuBFxr9cyL0pnOWT2aG-5" vertex="1">
          <mxGeometry x="45" y="80" width="10" height="170" as="geometry" />
        </mxCell>
        <mxCell id="3nuBFxr9cyL0pnOWT2aG-4" value="" style="points=[];perimeter=orthogonalPerimeter;rounded=0;shadow=0;strokeWidth=1;" parent="3nuBFxr9cyL0pnOWT2aG-5" vertex="1">
          <mxGeometry x="50" y="100" width="10" height="60" as="geometry" />
        </mxCell>
        <mxCell id="bTOaqfw5p9arZOFWaih8-1" value="" style="points=[];perimeter=orthogonalPerimeter;rounded=0;shadow=0;strokeWidth=1;" vertex="1" parent="3nuBFxr9cyL0pnOWT2aG-5">
          <mxGeometry x="50" y="180" width="10" height="60" as="geometry" />
        </mxCell>
        <mxCell id="bTOaqfw5p9arZOFWaih8-6" value="" style="endArrow=none;html=1;rounded=0;" edge="1" parent="3nuBFxr9cyL0pnOWT2aG-5">
          <mxGeometry width="50" height="50" relative="1" as="geometry">
            <mxPoint x="55" y="90" as="sourcePoint" />
            <mxPoint x="120" y="90" as="targetPoint" />
          </mxGeometry>
        </mxCell>
        <mxCell id="bTOaqfw5p9arZOFWaih8-8" value="" style="endArrow=classic;html=1;rounded=0;" edge="1" parent="3nuBFxr9cyL0pnOWT2aG-5">
          <mxGeometry width="50" height="50" relative="1" as="geometry">
            <mxPoint x="120" y="130" as="sourcePoint" />
            <mxPoint x="60" y="129.71" as="targetPoint" />
          </mxGeometry>
        </mxCell>
        <mxCell id="bTOaqfw5p9arZOFWaih8-11" value="" style="endArrow=classic;html=1;rounded=0;" edge="1" parent="3nuBFxr9cyL0pnOWT2aG-5">
          <mxGeometry width="50" height="50" relative="1" as="geometry">
            <mxPoint x="120" y="210" as="sourcePoint" />
            <mxPoint x="60" y="209.71000000000004" as="targetPoint" />
          </mxGeometry>
        </mxCell>
        <mxCell id="bTOaqfw5p9arZOFWaih8-12" value="" style="endArrow=none;html=1;rounded=0;" edge="1" parent="3nuBFxr9cyL0pnOWT2aG-5">
          <mxGeometry width="50" height="50" relative="1" as="geometry">
            <mxPoint x="55" y="170" as="sourcePoint" />
            <mxPoint x="120" y="170" as="targetPoint" />
          </mxGeometry>
        </mxCell>
        <mxCell id="3nuBFxr9cyL0pnOWT2aG-8" value="notify()" style="verticalAlign=bottom;endArrow=block;entryX=0;entryY=0;shadow=0;strokeWidth=1;" parent="1" source="3nuBFxr9cyL0pnOWT2aG-2" target="3nuBFxr9cyL0pnOWT2aG-6" edge="1">
          <mxGeometry relative="1" as="geometry">
            <mxPoint x="275" y="160" as="sourcePoint" />
          </mxGeometry>
        </mxCell>
        <mxCell id="bTOaqfw5p9arZOFWaih8-9" value="" style="endArrow=none;html=1;rounded=0;" edge="1" parent="1">
          <mxGeometry width="50" height="50" relative="1" as="geometry">
            <mxPoint x="420" y="210" as="sourcePoint" />
            <mxPoint x="420" y="170" as="targetPoint" />
          </mxGeometry>
        </mxCell>
        <mxCell id="bTOaqfw5p9arZOFWaih8-10" value="addCustomers()" style="text;html=1;align=center;verticalAlign=middle;resizable=0;points=[];autosize=1;strokeColor=none;fillColor=none;" vertex="1" parent="1">
          <mxGeometry x="415" y="180" width="100" height="20" as="geometry" />
        </mxCell>
        <mxCell id="bTOaqfw5p9arZOFWaih8-13" value="" style="endArrow=none;html=1;rounded=0;" edge="1" parent="1">
          <mxGeometry width="50" height="50" relative="1" as="geometry">
            <mxPoint x="420" y="290" as="sourcePoint" />
            <mxPoint x="420" y="250" as="targetPoint" />
          </mxGeometry>
        </mxCell>
        <mxCell id="bTOaqfw5p9arZOFWaih8-14" value="ProcessCustomers()" style="text;html=1;align=center;verticalAlign=middle;resizable=0;points=[];autosize=1;strokeColor=none;fillColor=none;" vertex="1" parent="1">
          <mxGeometry x="415" y="260" width="120" height="20" as="geometry" />
        </mxCell>
        <mxCell id="bTOaqfw5p9arZOFWaih8-15" value="notify every simulated minute" style="rounded=0;whiteSpace=wrap;html=1;" vertex="1" parent="1">
          <mxGeometry x="515" y="40" width="120" height="60" as="geometry" />
        </mxCell>
        <mxCell id="bTOaqfw5p9arZOFWaih8-18" value="sd ClockNotifyCheckout" style="rounded=1;whiteSpace=wrap;html=1;" vertex="1" parent="1">
          <mxGeometry width="140" height="20" as="geometry" />
        </mxCell>
      </root>
    </mxGraphModel>
  </diagram>
  <diagram id="1brQ0yqux-kK48zK3aQE" name="Page-2">
    <mxGraphModel dx="813" dy="435" grid="1" gridSize="10" guides="1" tooltips="1" connect="1" arrows="1" fold="1" page="1" pageScale="1" pageWidth="850" pageHeight="1100" math="0" shadow="0">
      <root>
        <mxCell id="E_dnZjqbHPf4qMpIFb9E-0" />
        <mxCell id="E_dnZjqbHPf4qMpIFb9E-1" parent="E_dnZjqbHPf4qMpIFb9E-0" />
        <mxCell id="2q3a48YyJyF_BGKVYIYm-13" value="" style="rounded=1;whiteSpace=wrap;html=1;" vertex="1" parent="E_dnZjqbHPf4qMpIFb9E-1">
          <mxGeometry x="20" y="220" width="800" height="130" as="geometry" />
        </mxCell>
        <mxCell id="E_dnZjqbHPf4qMpIFb9E-2" value="sd AddCustomers" style="rounded=1;whiteSpace=wrap;html=1;" vertex="1" parent="E_dnZjqbHPf4qMpIFb9E-1">
          <mxGeometry width="220" height="30" as="geometry" />
        </mxCell>
        <mxCell id="E_dnZjqbHPf4qMpIFb9E-3" value=":Checkout" style="rounded=1;whiteSpace=wrap;html=1;" vertex="1" parent="E_dnZjqbHPf4qMpIFb9E-1">
          <mxGeometry x="70" y="70" width="120" height="60" as="geometry" />
        </mxCell>
        <mxCell id="2q3a48YyJyF_BGKVYIYm-0" value="" style="endArrow=none;dashed=1;html=1;rounded=0;strokeWidth=2;startArrow=none;" edge="1" parent="E_dnZjqbHPf4qMpIFb9E-1" source="2q3a48YyJyF_BGKVYIYm-1">
          <mxGeometry width="50" height="50" relative="1" as="geometry">
            <mxPoint x="130" y="380" as="sourcePoint" />
            <mxPoint x="129.5" y="130" as="targetPoint" />
          </mxGeometry>
        </mxCell>
        <mxCell id="2q3a48YyJyF_BGKVYIYm-1" value="" style="rounded=1;whiteSpace=wrap;html=1;rotation=90;" vertex="1" parent="E_dnZjqbHPf4qMpIFb9E-1">
          <mxGeometry x="28.75" y="248.75" width="202.5" height="20" as="geometry" />
        </mxCell>
        <mxCell id="2q3a48YyJyF_BGKVYIYm-2" value="" style="endArrow=none;dashed=1;html=1;rounded=0;strokeWidth=2;" edge="1" parent="E_dnZjqbHPf4qMpIFb9E-1" target="2q3a48YyJyF_BGKVYIYm-1">
          <mxGeometry width="50" height="50" relative="1" as="geometry">
            <mxPoint x="130" y="440" as="sourcePoint" />
            <mxPoint x="129.5" y="130" as="targetPoint" />
          </mxGeometry>
        </mxCell>
        <mxCell id="2q3a48YyJyF_BGKVYIYm-3" value=":Random" style="rounded=1;whiteSpace=wrap;html=1;" vertex="1" parent="E_dnZjqbHPf4qMpIFb9E-1">
          <mxGeometry x="305" y="70" width="120" height="60" as="geometry" />
        </mxCell>
        <mxCell id="2q3a48YyJyF_BGKVYIYm-4" value="" style="endArrow=none;dashed=1;html=1;rounded=0;strokeWidth=2;startArrow=none;" edge="1" parent="E_dnZjqbHPf4qMpIFb9E-1">
          <mxGeometry width="50" height="50" relative="1" as="geometry">
            <mxPoint x="370" y="160" as="sourcePoint" />
            <mxPoint x="370" y="130" as="targetPoint" />
          </mxGeometry>
        </mxCell>
        <mxCell id="2q3a48YyJyF_BGKVYIYm-6" value="" style="endArrow=none;dashed=1;html=1;rounded=0;strokeWidth=2;" edge="1" parent="E_dnZjqbHPf4qMpIFb9E-1" target="2q3a48YyJyF_BGKVYIYm-10">
          <mxGeometry width="50" height="50" relative="1" as="geometry">
            <mxPoint x="370" y="440" as="sourcePoint" />
            <mxPoint x="372.1470588235295" y="217.5" as="targetPoint" />
          </mxGeometry>
        </mxCell>
        <mxCell id="2q3a48YyJyF_BGKVYIYm-7" value=":Queue" style="rounded=1;whiteSpace=wrap;html=1;" vertex="1" parent="E_dnZjqbHPf4qMpIFb9E-1">
          <mxGeometry x="580" y="70" width="120" height="60" as="geometry" />
        </mxCell>
        <mxCell id="2q3a48YyJyF_BGKVYIYm-8" value="" style="endArrow=none;dashed=1;html=1;rounded=0;strokeWidth=2;startArrow=none;" edge="1" parent="E_dnZjqbHPf4qMpIFb9E-1" source="2q3a48YyJyF_BGKVYIYm-11">
          <mxGeometry width="50" height="50" relative="1" as="geometry">
            <mxPoint x="640" y="400" as="sourcePoint" />
            <mxPoint x="640" y="130" as="targetPoint" />
          </mxGeometry>
        </mxCell>
        <mxCell id="2q3a48YyJyF_BGKVYIYm-10" value="" style="rounded=1;whiteSpace=wrap;html=1;rotation=90;" vertex="1" parent="E_dnZjqbHPf4qMpIFb9E-1">
          <mxGeometry x="345" y="175" width="50" height="20" as="geometry" />
        </mxCell>
        <mxCell id="2q3a48YyJyF_BGKVYIYm-11" value="" style="rounded=1;whiteSpace=wrap;html=1;rotation=90;" vertex="1" parent="E_dnZjqbHPf4qMpIFb9E-1">
          <mxGeometry x="610" y="300" width="60" height="20" as="geometry" />
        </mxCell>
        <mxCell id="2q3a48YyJyF_BGKVYIYm-12" value="" style="endArrow=none;dashed=1;html=1;rounded=0;strokeWidth=2;" edge="1" parent="E_dnZjqbHPf4qMpIFb9E-1" target="2q3a48YyJyF_BGKVYIYm-11">
          <mxGeometry width="50" height="50" relative="1" as="geometry">
            <mxPoint x="640" y="440" as="sourcePoint" />
            <mxPoint x="640" y="130" as="targetPoint" />
          </mxGeometry>
        </mxCell>
        <mxCell id="2q3a48YyJyF_BGKVYIYm-16" value="Loop(0,10)" style="text;html=1;strokeColor=none;fillColor=none;align=center;verticalAlign=middle;whiteSpace=wrap;rounded=0;" vertex="1" parent="E_dnZjqbHPf4qMpIFb9E-1">
          <mxGeometry x="20" y="218.75" width="68.75" height="30" as="geometry" />
        </mxCell>
        <mxCell id="2q3a48YyJyF_BGKVYIYm-18" value="" style="endArrow=classic;html=1;rounded=0;strokeWidth=1;entryX=0.25;entryY=1;entryDx=0;entryDy=0;" edge="1" parent="E_dnZjqbHPf4qMpIFb9E-1" target="2q3a48YyJyF_BGKVYIYm-10">
          <mxGeometry width="50" height="50" relative="1" as="geometry">
            <mxPoint x="140" y="173" as="sourcePoint" />
            <mxPoint x="340" y="170" as="targetPoint" />
          </mxGeometry>
        </mxCell>
        <mxCell id="2q3a48YyJyF_BGKVYIYm-19" value="Random()" style="text;html=1;strokeColor=none;fillColor=none;align=center;verticalAlign=middle;whiteSpace=wrap;rounded=0;" vertex="1" parent="E_dnZjqbHPf4qMpIFb9E-1">
          <mxGeometry x="220" y="145" width="60" height="30" as="geometry" />
        </mxCell>
        <mxCell id="2q3a48YyJyF_BGKVYIYm-20" value="" style="endArrow=classic;html=1;rounded=0;strokeWidth=1;entryX=0.5;entryY=1;entryDx=0;entryDy=0;" edge="1" parent="E_dnZjqbHPf4qMpIFb9E-1" target="2q3a48YyJyF_BGKVYIYm-11">
          <mxGeometry width="50" height="50" relative="1" as="geometry">
            <mxPoint x="140" y="310.21" as="sourcePoint" />
            <mxPoint x="360" y="309.71" as="targetPoint" />
          </mxGeometry>
        </mxCell>
        <mxCell id="2q3a48YyJyF_BGKVYIYm-21" value="enter(Customer)" style="text;html=1;strokeColor=none;fillColor=none;align=center;verticalAlign=middle;whiteSpace=wrap;rounded=0;" vertex="1" parent="E_dnZjqbHPf4qMpIFb9E-1">
          <mxGeometry x="220" y="280" width="60" height="30" as="geometry" />
        </mxCell>
        <mxCell id="2q3a48YyJyF_BGKVYIYm-23" value=":Customer" style="rounded=1;whiteSpace=wrap;html=1;" vertex="1" parent="E_dnZjqbHPf4qMpIFb9E-1">
          <mxGeometry x="680" y="228.75" width="120" height="60" as="geometry" />
        </mxCell>
        <mxCell id="2q3a48YyJyF_BGKVYIYm-24" value="" style="endArrow=classic;html=1;rounded=0;strokeWidth=1;entryX=0;entryY=0.5;entryDx=0;entryDy=0;" edge="1" parent="E_dnZjqbHPf4qMpIFb9E-1" target="2q3a48YyJyF_BGKVYIYm-23">
          <mxGeometry width="50" height="50" relative="1" as="geometry">
            <mxPoint x="140" y="258.67" as="sourcePoint" />
            <mxPoint x="630" y="258.46" as="targetPoint" />
          </mxGeometry>
        </mxCell>
        <mxCell id="2q3a48YyJyF_BGKVYIYm-25" value="NewCustomers()" style="text;html=1;strokeColor=none;fillColor=none;align=center;verticalAlign=middle;whiteSpace=wrap;rounded=0;" vertex="1" parent="E_dnZjqbHPf4qMpIFb9E-1">
          <mxGeometry x="220" y="228.75" width="60" height="30" as="geometry" />
        </mxCell>
        <mxCell id="2q3a48YyJyF_BGKVYIYm-26" value="" style="endArrow=none;dashed=1;html=1;rounded=0;strokeWidth=2;startArrow=none;" edge="1" parent="E_dnZjqbHPf4qMpIFb9E-1">
          <mxGeometry width="50" height="50" relative="1" as="geometry">
            <mxPoint x="739.71" y="438.75" as="sourcePoint" />
            <mxPoint x="739.71" y="288.75" as="targetPoint" />
          </mxGeometry>
        </mxCell>
      </root>
    </mxGraphModel>
  </diagram>
  <diagram id="IKTdip-7LG_9I6P54wlZ" name="Page-3">
    <mxGraphModel dx="1422" dy="762" grid="1" gridSize="10" guides="1" tooltips="1" connect="1" arrows="1" fold="1" page="1" pageScale="1" pageWidth="850" pageHeight="1100" math="0" shadow="0">
      <root>
        <mxCell id="8T-F-BBAwmEX6_o-kDcD-0" />
        <mxCell id="8T-F-BBAwmEX6_o-kDcD-1" parent="8T-F-BBAwmEX6_o-kDcD-0" />
        <mxCell id="8T-F-BBAwmEX6_o-kDcD-23" value="" style="rounded=1;whiteSpace=wrap;html=1;" vertex="1" parent="8T-F-BBAwmEX6_o-kDcD-1">
          <mxGeometry x="30" y="310" width="800" height="160" as="geometry" />
        </mxCell>
        <mxCell id="8T-F-BBAwmEX6_o-kDcD-2" value=":Checkout" style="rounded=1;whiteSpace=wrap;html=1;" vertex="1" parent="8T-F-BBAwmEX6_o-kDcD-1">
          <mxGeometry x="61.25" y="160" width="120" height="60" as="geometry" />
        </mxCell>
        <mxCell id="8T-F-BBAwmEX6_o-kDcD-3" value="" style="endArrow=none;dashed=1;html=1;rounded=0;strokeWidth=2;startArrow=none;" edge="1" parent="8T-F-BBAwmEX6_o-kDcD-1" source="8T-F-BBAwmEX6_o-kDcD-4">
          <mxGeometry width="50" height="50" relative="1" as="geometry">
            <mxPoint x="121.25" y="470" as="sourcePoint" />
            <mxPoint x="120.75" y="220" as="targetPoint" />
          </mxGeometry>
        </mxCell>
        <mxCell id="8T-F-BBAwmEX6_o-kDcD-4" value="" style="rounded=1;whiteSpace=wrap;html=1;rotation=90;" vertex="1" parent="8T-F-BBAwmEX6_o-kDcD-1">
          <mxGeometry x="20" y="338.75" width="202.5" height="20" as="geometry" />
        </mxCell>
        <mxCell id="8T-F-BBAwmEX6_o-kDcD-5" value="" style="endArrow=none;dashed=1;html=1;rounded=0;strokeWidth=2;" edge="1" parent="8T-F-BBAwmEX6_o-kDcD-1" target="8T-F-BBAwmEX6_o-kDcD-4">
          <mxGeometry width="50" height="50" relative="1" as="geometry">
            <mxPoint x="121.25" y="530" as="sourcePoint" />
            <mxPoint x="120.75" y="220" as="targetPoint" />
          </mxGeometry>
        </mxCell>
        <mxCell id="8T-F-BBAwmEX6_o-kDcD-6" value=":Random" style="rounded=1;whiteSpace=wrap;html=1;" vertex="1" parent="8T-F-BBAwmEX6_o-kDcD-1">
          <mxGeometry x="296.25" y="160" width="120" height="60" as="geometry" />
        </mxCell>
        <mxCell id="8T-F-BBAwmEX6_o-kDcD-7" value="" style="endArrow=none;dashed=1;html=1;rounded=0;strokeWidth=2;startArrow=none;" edge="1" parent="8T-F-BBAwmEX6_o-kDcD-1">
          <mxGeometry width="50" height="50" relative="1" as="geometry">
            <mxPoint x="361.25" y="250" as="sourcePoint" />
            <mxPoint x="361.25" y="220" as="targetPoint" />
          </mxGeometry>
        </mxCell>
        <mxCell id="8T-F-BBAwmEX6_o-kDcD-8" value="" style="endArrow=none;dashed=1;html=1;rounded=0;strokeWidth=2;" edge="1" parent="8T-F-BBAwmEX6_o-kDcD-1" target="8T-F-BBAwmEX6_o-kDcD-11">
          <mxGeometry width="50" height="50" relative="1" as="geometry">
            <mxPoint x="361.25" y="530" as="sourcePoint" />
            <mxPoint x="363.3970588235295" y="307.5" as="targetPoint" />
          </mxGeometry>
        </mxCell>
        <mxCell id="8T-F-BBAwmEX6_o-kDcD-9" value=":Queue" style="rounded=1;whiteSpace=wrap;html=1;" vertex="1" parent="8T-F-BBAwmEX6_o-kDcD-1">
          <mxGeometry x="500" y="160" width="120" height="60" as="geometry" />
        </mxCell>
        <mxCell id="8T-F-BBAwmEX6_o-kDcD-10" value="" style="endArrow=none;dashed=1;html=1;rounded=0;strokeWidth=2;startArrow=none;entryX=0.5;entryY=1;entryDx=0;entryDy=0;" edge="1" parent="8T-F-BBAwmEX6_o-kDcD-1" source="8T-F-BBAwmEX6_o-kDcD-12" target="8T-F-BBAwmEX6_o-kDcD-9">
          <mxGeometry width="50" height="50" relative="1" as="geometry">
            <mxPoint x="631.25" y="490" as="sourcePoint" />
            <mxPoint x="631.25" y="220" as="targetPoint" />
          </mxGeometry>
        </mxCell>
        <mxCell id="8T-F-BBAwmEX6_o-kDcD-11" value="" style="rounded=1;whiteSpace=wrap;html=1;rotation=90;" vertex="1" parent="8T-F-BBAwmEX6_o-kDcD-1">
          <mxGeometry x="336.25" y="265" width="50" height="20" as="geometry" />
        </mxCell>
        <mxCell id="8T-F-BBAwmEX6_o-kDcD-12" value="" style="rounded=1;whiteSpace=wrap;html=1;rotation=90;" vertex="1" parent="8T-F-BBAwmEX6_o-kDcD-1">
          <mxGeometry x="530" y="390" width="60" height="20" as="geometry" />
        </mxCell>
        <mxCell id="8T-F-BBAwmEX6_o-kDcD-13" value="" style="endArrow=none;dashed=1;html=1;rounded=0;strokeWidth=2;" edge="1" parent="8T-F-BBAwmEX6_o-kDcD-1" target="8T-F-BBAwmEX6_o-kDcD-12">
          <mxGeometry width="50" height="50" relative="1" as="geometry">
            <mxPoint x="560" y="530" as="sourcePoint" />
            <mxPoint x="631.25" y="220" as="targetPoint" />
          </mxGeometry>
        </mxCell>
        <mxCell id="8T-F-BBAwmEX6_o-kDcD-14" value="" style="endArrow=classic;html=1;rounded=0;strokeWidth=1;entryX=0.25;entryY=1;entryDx=0;entryDy=0;" edge="1" parent="8T-F-BBAwmEX6_o-kDcD-1" target="8T-F-BBAwmEX6_o-kDcD-11">
          <mxGeometry width="50" height="50" relative="1" as="geometry">
            <mxPoint x="131.25" y="263" as="sourcePoint" />
            <mxPoint x="331.25" y="260" as="targetPoint" />
          </mxGeometry>
        </mxCell>
        <mxCell id="8T-F-BBAwmEX6_o-kDcD-15" value="Random()" style="text;html=1;strokeColor=none;fillColor=none;align=center;verticalAlign=middle;whiteSpace=wrap;rounded=0;" vertex="1" parent="8T-F-BBAwmEX6_o-kDcD-1">
          <mxGeometry x="211.25" y="235" width="60" height="30" as="geometry" />
        </mxCell>
        <mxCell id="8T-F-BBAwmEX6_o-kDcD-16" value="" style="endArrow=classic;html=1;rounded=0;strokeWidth=1;entryX=0.5;entryY=1;entryDx=0;entryDy=0;" edge="1" parent="8T-F-BBAwmEX6_o-kDcD-1" target="8T-F-BBAwmEX6_o-kDcD-12">
          <mxGeometry width="50" height="50" relative="1" as="geometry">
            <mxPoint x="131.25" y="400.21000000000004" as="sourcePoint" />
            <mxPoint x="351.25" y="399.71" as="targetPoint" />
          </mxGeometry>
        </mxCell>
        <mxCell id="8T-F-BBAwmEX6_o-kDcD-17" value="remove()" style="text;html=1;strokeColor=none;fillColor=none;align=center;verticalAlign=middle;whiteSpace=wrap;rounded=0;" vertex="1" parent="8T-F-BBAwmEX6_o-kDcD-1">
          <mxGeometry x="211.25" y="370" width="60" height="30" as="geometry" />
        </mxCell>
        <mxCell id="8T-F-BBAwmEX6_o-kDcD-18" value=":Customer" style="rounded=1;whiteSpace=wrap;html=1;" vertex="1" parent="8T-F-BBAwmEX6_o-kDcD-1">
          <mxGeometry x="710" y="160" width="120" height="60" as="geometry" />
        </mxCell>
        <mxCell id="8T-F-BBAwmEX6_o-kDcD-21" value="" style="endArrow=none;dashed=1;html=1;rounded=0;strokeWidth=2;startArrow=none;" edge="1" parent="8T-F-BBAwmEX6_o-kDcD-1">
          <mxGeometry width="50" height="50" relative="1" as="geometry">
            <mxPoint x="769.5000000000002" y="370" as="sourcePoint" />
            <mxPoint x="769.5000000000002" y="220" as="targetPoint" />
          </mxGeometry>
        </mxCell>
        <mxCell id="8T-F-BBAwmEX6_o-kDcD-22" value="sd ProcessCustomer" style="rounded=1;whiteSpace=wrap;html=1;" vertex="1" parent="8T-F-BBAwmEX6_o-kDcD-1">
          <mxGeometry width="160" height="40" as="geometry" />
        </mxCell>
        <mxCell id="8T-F-BBAwmEX6_o-kDcD-24" value="Loop(0,10)" style="text;html=1;strokeColor=none;fillColor=none;align=center;verticalAlign=middle;whiteSpace=wrap;rounded=0;" vertex="1" parent="8T-F-BBAwmEX6_o-kDcD-1">
          <mxGeometry x="30" y="310" width="70" height="30" as="geometry" />
        </mxCell>
        <mxCell id="L7UwHsS_VlGScF6WgOxd-0" value="" style="endArrow=classic;html=1;rounded=0;strokeWidth=1;entryX=0.25;entryY=1;entryDx=0;entryDy=0;" edge="1" parent="8T-F-BBAwmEX6_o-kDcD-1">
          <mxGeometry width="50" height="50" relative="1" as="geometry">
            <mxPoint x="570" y="370" as="sourcePoint" />
            <mxPoint x="770" y="370" as="targetPoint" />
          </mxGeometry>
        </mxCell>
        <mxCell id="L7UwHsS_VlGScF6WgOxd-1" value="Destroy" style="text;html=1;strokeColor=none;fillColor=none;align=center;verticalAlign=middle;whiteSpace=wrap;rounded=0;" vertex="1" parent="8T-F-BBAwmEX6_o-kDcD-1">
          <mxGeometry x="640" y="340" width="60" height="30" as="geometry" />
        </mxCell>
      </root>
    </mxGraphModel>
  </diagram>
  <diagram id="cePA9xYmZadNoebBsndP" name="Page-4">
    <mxGraphModel dx="2272" dy="762" grid="1" gridSize="10" guides="1" tooltips="1" connect="1" arrows="1" fold="1" page="1" pageScale="1" pageWidth="850" pageHeight="1100" math="0" shadow="0">
      <root>
        <mxCell id="2FLhjEE30xPNqYAVxItI-0" />
        <mxCell id="2FLhjEE30xPNqYAVxItI-1" parent="2FLhjEE30xPNqYAVxItI-0" />
        <mxCell id="PiOkKeHJk-W8B2vhTJfh-3" style="edgeStyle=orthogonalEdgeStyle;rounded=0;orthogonalLoop=1;jettySize=auto;html=1;exitX=0.85;exitY=1.033;exitDx=0;exitDy=0;strokeWidth=1;exitPerimeter=0;entryX=0.2;entryY=0.007;entryDx=0;entryDy=0;entryPerimeter=0;" edge="1" parent="2FLhjEE30xPNqYAVxItI-1" source="2FLhjEE30xPNqYAVxItI-7" target="5qB8sHffzaJco7m-HeBm-2">
          <mxGeometry relative="1" as="geometry">
            <mxPoint x="240" y="320" as="targetPoint" />
          </mxGeometry>
        </mxCell>
        <mxCell id="2FLhjEE30xPNqYAVxItI-5" value="Checkout" style="swimlane;" vertex="1" parent="2FLhjEE30xPNqYAVxItI-1">
          <mxGeometry x="70" y="40" width="200" height="150" as="geometry" />
        </mxCell>
        <mxCell id="2FLhjEE30xPNqYAVxItI-7" value="&lt;span&gt;+ addCustomers()&lt;/span&gt;&lt;br&gt;&lt;span&gt;+ processCustomers()&lt;/span&gt;" style="rounded=0;whiteSpace=wrap;html=1;align=left;" vertex="1" parent="2FLhjEE30xPNqYAVxItI-5">
          <mxGeometry y="90" width="200" height="60" as="geometry" />
        </mxCell>
        <mxCell id="10K_a_AJLezfxFyQLIa7-0" value="Queue" style="swimlane;" vertex="1" parent="2FLhjEE30xPNqYAVxItI-1">
          <mxGeometry x="520" y="40" width="200" height="150" as="geometry" />
        </mxCell>
        <mxCell id="10K_a_AJLezfxFyQLIa7-1" value="&lt;span&gt;+ enterCustomers()&lt;/span&gt;&lt;br&gt;&lt;span&gt;+ remove()&lt;/span&gt;" style="rounded=0;whiteSpace=wrap;html=1;align=left;" vertex="1" parent="10K_a_AJLezfxFyQLIa7-0">
          <mxGeometry y="90" width="200" height="60" as="geometry" />
        </mxCell>
        <mxCell id="Hk4lfLHr64dRnZRZRuiL-0" value="" style="endArrow=none;html=1;rounded=0;strokeWidth=1;" edge="1" parent="2FLhjEE30xPNqYAVxItI-1">
          <mxGeometry width="50" height="50" relative="1" as="geometry">
            <mxPoint x="290" y="120" as="sourcePoint" />
            <mxPoint x="520" y="120" as="targetPoint" />
          </mxGeometry>
        </mxCell>
        <mxCell id="Hk4lfLHr64dRnZRZRuiL-1" value="" style="rhombus;whiteSpace=wrap;html=1;" vertex="1" parent="2FLhjEE30xPNqYAVxItI-1">
          <mxGeometry x="270" y="110" width="20" height="20" as="geometry" />
        </mxCell>
        <mxCell id="Hk4lfLHr64dRnZRZRuiL-2" value="Has" style="text;html=1;align=center;verticalAlign=middle;resizable=0;points=[];autosize=1;strokeColor=none;fillColor=none;" vertex="1" parent="2FLhjEE30xPNqYAVxItI-1">
          <mxGeometry x="385" y="100" width="40" height="20" as="geometry" />
        </mxCell>
        <mxCell id="Hk4lfLHr64dRnZRZRuiL-3" value="Customer" style="swimlane;" vertex="1" parent="2FLhjEE30xPNqYAVxItI-1">
          <mxGeometry x="520" y="330" width="200" height="150" as="geometry" />
        </mxCell>
        <mxCell id="Hk4lfLHr64dRnZRZRuiL-4" value="&lt;span&gt;+ newCustomers()&lt;/span&gt;" style="rounded=0;whiteSpace=wrap;html=1;align=left;" vertex="1" parent="Hk4lfLHr64dRnZRZRuiL-3">
          <mxGeometry y="90" width="200" height="60" as="geometry" />
        </mxCell>
        <mxCell id="5qB8sHffzaJco7m-HeBm-0" value="" style="endArrow=classic;html=1;rounded=0;strokeWidth=1;entryX=0.5;entryY=0;entryDx=0;entryDy=0;exitX=0.5;exitY=1;exitDx=0;exitDy=0;" edge="1" parent="2FLhjEE30xPNqYAVxItI-1" source="10K_a_AJLezfxFyQLIa7-0" target="Hk4lfLHr64dRnZRZRuiL-3">
          <mxGeometry width="50" height="50" relative="1" as="geometry">
            <mxPoint x="570" y="280" as="sourcePoint" />
            <mxPoint x="620" y="230" as="targetPoint" />
          </mxGeometry>
        </mxCell>
        <mxCell id="5qB8sHffzaJco7m-HeBm-1" value="Hold" style="text;html=1;align=center;verticalAlign=middle;resizable=0;points=[];autosize=1;strokeColor=none;fillColor=none;" vertex="1" parent="2FLhjEE30xPNqYAVxItI-1">
          <mxGeometry x="620" y="240" width="40" height="20" as="geometry" />
        </mxCell>
        <mxCell id="5qB8sHffzaJco7m-HeBm-2" value="Random" style="swimlane;" vertex="1" parent="2FLhjEE30xPNqYAVxItI-1">
          <mxGeometry x="200" y="330" width="200" height="150" as="geometry" />
        </mxCell>
        <mxCell id="5qB8sHffzaJco7m-HeBm-3" value="&lt;span&gt;+ random()&lt;/span&gt;" style="rounded=0;whiteSpace=wrap;html=1;align=left;" vertex="1" parent="5qB8sHffzaJco7m-HeBm-2">
          <mxGeometry y="90" width="200" height="60" as="geometry" />
        </mxCell>
        <mxCell id="PiOkKeHJk-W8B2vhTJfh-1" style="edgeStyle=orthogonalEdgeStyle;rounded=0;orthogonalLoop=1;jettySize=auto;html=1;strokeWidth=1;exitX=0.95;exitY=-0.013;exitDx=0;exitDy=0;exitPerimeter=0;" edge="1" parent="2FLhjEE30xPNqYAVxItI-1" source="5qB8sHffzaJco7m-HeBm-4">
          <mxGeometry relative="1" as="geometry">
            <mxPoint x="90" y="190" as="targetPoint" />
          </mxGeometry>
        </mxCell>
        <mxCell id="5qB8sHffzaJco7m-HeBm-4" value="ClockQueue" style="swimlane;" vertex="1" parent="2FLhjEE30xPNqYAVxItI-1">
          <mxGeometry x="-100" y="330" width="200" height="150" as="geometry" />
        </mxCell>
        <mxCell id="5qB8sHffzaJco7m-HeBm-5" value="" style="rounded=0;whiteSpace=wrap;html=1;align=left;" vertex="1" parent="5qB8sHffzaJco7m-HeBm-4">
          <mxGeometry y="90" width="200" height="60" as="geometry" />
        </mxCell>
        <mxCell id="PiOkKeHJk-W8B2vhTJfh-2" value="Notifies" style="text;html=1;align=center;verticalAlign=middle;resizable=0;points=[];autosize=1;strokeColor=none;fillColor=none;" vertex="1" parent="2FLhjEE30xPNqYAVxItI-1">
          <mxGeometry x="30" y="260" width="60" height="20" as="geometry" />
        </mxCell>
      </root>
    </mxGraphModel>
  </diagram>
</mxfile>
